<svg xmlns="http://www.w3.org/2000/svg" width="1080" height="1080" viewBox="0 0 1080 1080">
  <defs>
    <linearGradient id="bg" x1="0%" y1="0%" x2="100%" y2="100%">
      <stop offset="0%" stop-color="#6366f1"/>
      <stop offset="50%" stop-color="#8b5cf6"/>
      <stop offset="100%" stop-color="#a855f7"/>
    </linearGradient>
    <!-- Tunisian Flag -->
    <g id="tn-flag">
      <rect width="60" height="40" fill="#E70013"/>
      <circle cx="30" cy="20" r="12" fill="white"/>
      <circle cx="32" cy="20" r="10" fill="#E70013"/>
      <path d="M38 20 L46 24 L43 20 L46 16 Z" fill="white"/>
    </g>
  </defs>
  <rect width="1080" height="1080" fill="url(#bg)"/>
  <!-- Flag in top right -->
  <g transform="translate(960, 60)">
    <rect width="60" height="40" rx="4" fill="#E70013"/>
    <circle cx="30" cy="20" r="12" fill="white"/>
    <circle cx="32" cy="20" r="10" fill="#E70013"/>
    <path d="M38 20 L46 24 L43 20 L46 16 Z" fill="white"/>
  </g>
  <rect x="60" y="60" width="48" height="48" rx="12" fill="white"/>
  <text x="84" y="96" text-anchor="middle" fill="#6366f1" font-size="24" font-weight="900" font-family="Arial">B</text>
  <text x="124" y="96" fill="white" font-size="28" font-weight="700" font-family="Arial">Bac Excellence</text>
  <text x="540" y="400" text-anchor="middle" fill="white" font-size="120" font-family="Arial">🚀</text>
  <text x="540" y="550" text-anchor="middle" fill="white" font-size="56" font-weight="900" font-family="Arial">La Plateforme Officielle</text>
  <text x="540" y="620" text-anchor="middle" fill="white" font-size="56" font-weight="900" font-family="Arial">BAC Tunisie 2026</text>
  <text x="540" y="720" text-anchor="middle" fill="rgba(255,255,255,0.9)" font-size="36" font-family="Arial">50,000+ élèves réussissent avec nous 🇹🇳</text>
  <rect x="240" y="820" width="600" height="80" rx="40" fill="white"/>
  <text x="540" y="872" text-anchor="middle" fill="#6366f1" font-size="28" font-weight="700" font-family="Arial">Commencer Gratuitement →</text>
  <text x="540" y="960" text-anchor="middle" fill="rgba(255,255,255,0.7)" font-size="24" font-family="Arial">bac-excellence.vercel.app</text>
</svg>
