<svg xmlns="http://www.w3.org/2000/svg" width="1080" height="1080" viewBox="0 0 1080 1080">
  <defs>
    <linearGradient id="bg" x1="0%" y1="0%" x2="100%" y2="100%">
      <stop offset="0%" stop-color="#059669"/>
      <stop offset="50%" stop-color="#10b981"/>
      <stop offset="100%" stop-color="#34d399"/>
    </linearGradient>
  </defs>
  <rect width="1080" height="1080" fill="url(#bg)"/>
  <!-- Tunisian Flag -->
  <g transform="translate(960, 60)">
    <rect width="60" height="40" rx="4" fill="#E70013"/>
    <circle cx="30" cy="20" r="12" fill="white"/>
    <circle cx="32" cy="20" r="10" fill="#E70013"/>
    <path d="M38 20 L46 24 L43 20 L46 16 Z" fill="white"/>
  </g>
  <rect x="60" y="60" width="48" height="48" rx="12" fill="white"/>
  <text x="84" y="96" text-anchor="middle" fill="#059669" font-size="24" font-weight="900" font-family="Arial">B</text>
  <text x="124" y="96" fill="white" font-size="28" font-weight="700" font-family="Arial">Bac Excellence</text>
  <text x="540" y="200" text-anchor="middle" fill="white" font-size="48" font-weight="900" font-family="Arial">Contenu pour TOUTES les sections 🇹🇳</text>
  <rect x="60" y="300" width="300" height="100" rx="50" fill="rgba(255,255,255,0.2)"/>
  <text x="210" y="365" text-anchor="middle" fill="white" font-size="28" font-family="Arial">📐 Mathématiques</text>
  <rect x="390" y="300" width="300" height="100" rx="50" fill="rgba(255,255,255,0.2)"/>
  <text x="540" y="365" text-anchor="middle" fill="white" font-size="28" font-family="Arial">🔬 Sciences</text>
  <rect x="720" y="300" width="300" height="100" rx="50" fill="rgba(255,255,255,0.2)"/>
  <text x="870" y="365" text-anchor="middle" fill="white" font-size="28" font-family="Arial">📚 Lettres</text>
  <rect x="60" y="440" width="300" height="100" rx="50" fill="rgba(255,255,255,0.2)"/>
  <text x="210" y="505" text-anchor="middle" fill="white" font-size="28" font-family="Arial">💰 Économie</text>
  <rect x="390" y="440" width="300" height="100" rx="50" fill="rgba(255,255,255,0.2)"/>
  <text x="540" y="505" text-anchor="middle" fill="white" font-size="28" font-family="Arial">⚙️ Technique</text>
  <rect x="720" y="440" width="300" height="100" rx="50" fill="rgba(255,255,255,0.2)"/>
  <text x="870" y="505" text-anchor="middle" fill="white" font-size="28" font-family="Arial">💻 Informatique</text>
  <text x="540" y="700" text-anchor="middle" fill="rgba(255,255,255,0.9)" font-size="40" font-weight="600" font-family="Arial">Adapté à ton coefficient</text>
  <text x="540" y="900" text-anchor="middle" fill="rgba(255,255,255,0.7)" font-size="28" font-family="Arial">bac-excellence.vercel.app</text>
</svg>
